<svg width="24" height="24" viewBox="0 0 24 24" fill="none" xmlns="http://www.w3.org/2000/svg">
<mask id="mask0_503_32240" style="mask-type:alpha" maskUnits="userSpaceOnUse" x="1" y="3" width="22" height="18">
<path fill-rule="evenodd" clip-rule="evenodd" d="M11 3H1V21H11H23V3H11ZM11 3C11.5523 3 12 3.44772 12 4V7C12 7.55228 11.5523 8 11 8C10.4477 8 10 7.55228 10 7V4C10 3.44772 10.4477 3 11 3ZM11 21C10.4477 21 10 20.5523 10 20V17C10 16.4477 10.4477 16 11 16C11.5523 16 12 16.4477 12 17V20C12 20.5523 11.5523 21 11 21ZM11 10C11.5523 10 12 10.4477 12 11V13C12 13.5523 11.5523 14 11 14C10.4477 14 10 13.5523 10 13V11C10 10.4477 10.4477 10 11 10Z" fill="#D9D9D9"/>
</mask>
<g mask="url(#mask0_503_32240)">
<path d="M17.25 12C17.25 13.5188 18.4812 14.75 20 14.75H21.29V18.25C21.29 18.8 20.84 19.25 20.29 19.25H3.79004C3.24004 19.25 2.79004 18.8 2.79004 18.25V14.75H3.98611C5.51256 14.75 6.75 13.5126 6.75 11.9861C6.75 10.4705 5.52951 9.23767 4.01403 9.22236L2.79004 9.21V5.75C2.79004 5.2 3.24004 4.75 3.79004 4.75H20.29C20.84 4.75 21.29 5.2 21.29 5.75V9.25H20C18.4812 9.25 17.25 10.4812 17.25 12Z" fill="#121331" stroke="#121331" stroke-width="1.5" stroke-linecap="round" stroke-linejoin="round"/>
</g>
</svg>
