<svg width="25" height="24" viewBox="0 0 25 24" fill="none" xmlns="http://www.w3.org/2000/svg">
<mask id="mask0_503_32034" style="mask-type:alpha" maskUnits="userSpaceOnUse" x="4" y="1" width="17" height="22">
<path d="M13.309 1C13.4278 1.13269 13.5 1.30791 13.5 1.5V8.5H20.5C20.6921 8.5 20.8673 8.57221 21 8.69097V1H13.309Z" fill="#D9D9D9"/>
<path fill-rule="evenodd" clip-rule="evenodd" d="M12.191 1C12.0722 1.13269 12 1.30791 12 1.5V9.25C12 9.66421 12.3358 10 12.75 10H20.5C20.6921 10 20.8673 9.92779 21 9.80903V23H4V1H12.191ZM13.2071 12.2929C12.8166 11.9024 12.1834 11.9024 11.7929 12.2929L9.29289 14.7929C8.90237 15.1834 8.90237 15.8166 9.29289 16.2071C9.68342 16.5976 10.3166 16.5976 10.7071 16.2071L11.5 15.4142V18.0698C11.5 18.6221 11.9477 19.0698 12.5 19.0698C13.0523 19.0698 13.5 18.6221 13.5 18.0698V15.4142L14.2929 16.2071C14.6834 16.5976 15.3166 16.5976 15.7071 16.2071C16.0976 15.8166 16.0976 15.1834 15.7071 14.7929L13.2071 12.2929Z" fill="#D9D9D9"/>
</mask>
<g mask="url(#mask0_503_32034)">
<path d="M19.75 9.25V20.25C19.75 20.8 19.3 21.25 18.75 21.25H6.25C5.7 21.25 5.25 20.8 5.25 20.25V3.75C5.25 3.2 5.7 2.75 6.25 2.75H13.25" fill="#121331"/>
<path d="M19.75 9.25V20.25C19.75 20.8 19.3 21.25 18.75 21.25H6.25C5.7 21.25 5.25 20.8 5.25 20.25V3.75C5.25 3.2 5.7 2.75 6.25 2.75H13.25L19.75 9.25Z" stroke="#121331" stroke-width="1.5" stroke-linecap="round" stroke-linejoin="round"/>
</g>
</svg>
